<svg width="18" height="22" fill="none" xmlns="http://www.w3.org/2000/svg"><path d="M9 22a37.366 37.366 0 01-4.5-4.315C2.443 15.35 0 11.872 0 8.558c0-1.692.527-3.347 1.515-4.755A8.917 8.917 0 015.555.651a9.437 9.437 0 015.203-.486 9.154 9.154 0 014.609 2.343 8.485 8.485 0 011.954 2.774A8.136 8.136 0 0118 8.558c0 3.314-2.443 6.792-4.5 9.127A37.373 37.373 0 019 22zM9 4.892a3.962 3.962 0 00-2.727 1.074 3.576 3.576 0 00-1.13 2.592c0 .972.406 1.905 1.13 2.592A3.962 3.962 0 009 12.224a3.962 3.962 0 002.727-1.074 3.576 3.576 0 001.13-2.592c0-.972-.406-1.905-1.13-2.592A3.962 3.962 0 009 4.892z" fill="#002C40"/></svg>