<svg width="16" height="20" fill="none" xmlns="http://www.w3.org/2000/svg"><path d="M8 20a33.55 33.55 0 01-4-3.923c-1.829-2.123-4-5.284-4-8.297 0-1.538.468-3.043 1.347-4.322A7.955 7.955 0 014.938.592 8.214 8.214 0 019.562.15a8.074 8.074 0 014.097 2.13 7.716 7.716 0 011.737 2.522c.402.944.607 1.957.604 2.978 0 3.013-2.171 6.174-4 8.297A33.55 33.55 0 018 20zM8 4.447a3.48 3.48 0 00-2.424.977A3.286 3.286 0 004.57 7.78c0 .884.362 1.732 1.005 2.357A3.48 3.48 0 008 11.113a3.48 3.48 0 002.424-.976A3.286 3.286 0 0011.43 7.78c0-.884-.362-1.731-1.005-2.356A3.48 3.48 0 008 4.447z" fill="#002C40"/></svg>