<svg width="120" height="120" viewBox="0 0 120 120" fill="none" xmlns="http://www.w3.org/2000/svg">
<path d="M60 120C93.1371 120 120 93.1371 120 60C120 26.8629 93.1371 0 60 0C26.8629 0 0 26.8629 0 60C0 93.1371 26.8629 120 60 120Z" fill="#377B87"/>
<path d="M76.3002 13.8008H32.8002C31.1002 13.8008 29.7002 15.2008 29.7002 16.9008V23.1008C29.7002 24.8008 31.1002 26.2008 32.8002 26.2008H76.4002C78.1002 26.2008 79.5002 24.8008 79.5002 23.1008V16.9008C79.5002 15.2008 78.1002 13.8008 76.3002 13.8008Z" fill="#48CFAD"/>
<path d="M76.5996 41.7992H32.5996C34.7996 36.9992 35.8996 31.6992 35.8996 26.1992H73.1996C73.1996 31.5992 74.3996 36.8992 76.5996 41.7992Z" fill="#CCD1D9"/>
<path d="M87.2004 67.5008C84.8004 68.2008 82.6004 69.2008 80.7004 70.5008C78.8004 57.8008 67.8004 48.0008 54.6004 48.0008C40.0004 48.0008 28.1004 59.8008 28.1004 74.4008C28.1004 89.0008 39.9004 100.801 54.5004 100.801C61.6004 100.801 68.0004 98.0008 72.8004 93.4008C74.5004 98.0008 78.0004 101.901 82.5004 104.301C80.4004 106.001 77.7004 107.001 74.7004 107.001H34.3004C27.4004 107.001 21.9004 101.401 21.9004 94.6008V55.8008L23.1004 54.7008C27.2004 51.1008 30.4004 46.6008 32.6004 41.8008H76.6004C78.8004 46.7008 82.0004 51.1008 86.1004 54.7008L87.3004 55.8008V67.5008H87.2004Z" fill="#E6E9ED"/>
<path d="M80.6996 70.5C76.0996 73.6 72.8996 78.3 71.9996 83.7C71.7996 84.7 71.6996 85.8 71.6996 86.8C71.6996 87.8 71.7996 88.9 71.9996 89.9C72.1996 91.1 72.4996 92.3 72.8996 93.4C68.0996 98 61.6996 100.8 54.5996 100.8C39.9996 100.9 28.0996 89 28.0996 74.4C28.0996 59.8 39.9996 48 54.5996 48C67.7996 48 78.7996 57.8 80.6996 70.5Z" fill="#48CFAD"/>
<path d="M71.7004 65.4984V66.1984C71.7004 67.4984 71.3004 68.7984 70.6004 69.8984C67.3004 74.8984 65.5004 80.7984 65.5004 86.7984V89.7984C65.5004 90.6984 65.1004 91.4984 64.5004 92.0984C63.9004 92.6984 63.1004 93.0984 62.2004 93.0984C60.5004 93.0984 59.1004 91.7984 58.9004 90.1984L58.0004 82.1984C57.9004 81.2984 57.5004 80.5984 56.9004 79.9984C56.3004 79.4984 55.5004 79.0984 54.6004 79.0984C52.8004 79.0984 51.3004 80.3984 51.1004 82.1984L50.2004 90.1984C50.0004 91.8984 48.6004 93.0984 46.9004 93.0984C45.1004 93.0984 43.6004 91.5984 43.6004 89.7984V86.7984C43.6004 83.7984 43.2004 80.7984 42.3004 77.9984C41.4004 75.1984 40.2004 72.3984 38.5004 69.8984C37.8004 68.7984 37.4004 67.4984 37.4004 66.1984V65.4984C37.4004 63.6984 38.1004 61.9984 39.3004 60.7984C40.5004 59.5984 42.1004 58.8984 44.0004 58.8984C45.8004 58.8984 47.4004 59.5984 48.7004 60.7984L49.2004 61.2984C50.6004 62.6984 52.5004 63.4984 54.5004 63.4984C56.5004 63.4984 58.4004 62.6984 59.8004 61.2984L60.3004 60.7984C61.5004 59.5984 63.2004 58.8984 65.0004 58.8984C68.7004 58.8984 71.7004 61.7984 71.7004 65.4984Z" fill="#E6E9ED"/>
<path d="M72 90H114.9H115C113.4 99.7 104.4 107.1 93.5 107.1C89.5 107.1 85.8 106.1 82.6 104.4C78.1 102 74.6 98.1 72.9 93.5C72.5 92.4 72.1 91.2 72 90Z" fill="#FCD770"/>
<path d="M115 83.7992H72.0004H71.9004C72.8004 78.3992 76.0004 73.5992 80.6004 70.5992C82.6004 69.2992 84.8004 68.2992 87.1004 67.5992C89.1004 66.9992 91.2004 66.6992 93.3004 66.6992C104.3 66.6992 113.4 74.0992 115 83.7992Z" fill="#FCD770"/>
<path d="M115 83.8008C115.2 84.8008 115.3 85.9008 115.3 86.9008C115.3 87.9008 115.1 89.0008 115 90.0008H114.9H71.9996H71.8996C71.6996 89.0008 71.5996 87.9008 71.5996 86.9008C71.5996 85.9008 71.6996 84.8008 71.8996 83.8008H71.9996H115Z" fill="#E6E9ED"/>
<path d="M65.1004 57.3008C62.9004 57.3008 60.9004 58.1008 59.3004 59.7008L58.8004 60.2008C57.7004 61.3008 56.2004 61.9008 54.6004 61.9008C53.0004 61.9008 51.5004 61.3008 50.4004 60.2008L49.9004 59.7008C48.4004 58.2008 46.3004 57.3008 44.1004 57.3008C39.6004 57.3008 35.9004 61.0008 35.9004 65.5008V66.2008C35.9004 67.8008 36.4004 69.4008 37.3004 70.7008C40.5004 75.5008 42.2004 81.0008 42.2004 86.7008V89.8008C42.2004 92.5008 44.4004 94.6008 47.0004 94.6008C49.5004 94.6008 51.5004 92.8008 51.8004 90.3008L52.7004 82.3008C52.8004 81.3008 53.6004 80.6008 54.6004 80.6008C55.6004 80.6008 56.4004 81.3008 56.5004 82.3008L57.4004 90.3008C57.7004 92.8008 59.7004 94.6008 62.2004 94.6008C64.9004 94.6008 67.0004 92.4008 67.0004 89.8008V86.7008C67.0004 81.0008 68.7004 75.4008 71.9004 70.7008C72.8004 69.4008 73.3004 67.8008 73.3004 66.2008V65.5008C73.2004 61.0008 69.6004 57.3008 65.1004 57.3008ZM70.1004 66.2008C70.1004 67.2008 69.8004 68.2008 69.3004 69.0008C65.8004 74.3008 63.9004 80.4008 63.9004 86.8008V89.9008C63.9004 90.9008 63.1004 91.6008 62.2004 91.6008C61.3004 91.6008 60.6004 90.9008 60.5004 90.1008L59.6004 82.1008C59.3004 79.5008 57.2004 77.6008 54.6004 77.6008C52.0004 77.6008 49.9004 79.5008 49.6004 82.1008L48.7004 90.1008C48.6004 91.0008 47.9004 91.6008 47.0004 91.6008C46.0004 91.6008 45.3004 90.8008 45.3004 89.9008V86.8008C45.3004 80.5008 43.4004 74.3008 39.9004 69.0008C39.3004 68.2008 39.1004 67.2008 39.1004 66.2008V65.5008C39.1004 62.7008 41.4004 60.5008 44.1004 60.5008C45.4004 60.5008 46.7004 61.0008 47.7004 62.0008L48.2004 62.5008C49.9004 64.2008 52.2004 65.2008 54.6004 65.2008C57.0004 65.2008 59.3004 64.2008 61.0004 62.5008L61.5004 62.0008C62.5004 61.0008 63.7004 60.5008 65.1004 60.5008C67.9004 60.5008 70.1004 62.8008 70.1004 65.5008V66.2008Z" fill="black"/>
<path d="M93.5004 65.0992C92.9004 65.0992 92.4004 65.0992 91.8004 65.1992L92.0004 68.2992C92.5004 68.2992 93.0004 68.2992 93.5004 68.2992C102.9 68.2992 110.8 74.2992 113.1 82.2992H73.9004C75.7004 75.9992 80.8004 70.8992 87.7004 68.9992L88.8004 68.6992V55.0992L87.1004 53.5992C79.7004 46.9992 75.3004 37.6992 74.9004 27.7992H76.4004C79.0004 27.7992 81.1004 25.6992 81.1004 23.0992V16.8992C81.1004 14.2992 79.0004 12.1992 76.4004 12.1992H32.8004C30.2004 12.1992 28.1004 14.2992 28.1004 16.8992V23.0992C28.1004 25.6992 30.2004 27.7992 32.8004 27.7992H34.3004C33.9004 37.6992 29.5004 46.9992 22.1004 53.5992L20.4004 55.0992V94.6992C20.4004 102.399 26.7004 108.699 34.4004 108.699H74.8004C77.7004 108.699 80.4004 107.799 82.7004 106.199C85.9004 107.799 89.6004 108.699 93.4004 108.699C106.3 108.699 116.7 98.8992 116.7 86.8992C116.7 74.8992 106.3 65.0992 93.5004 65.0992ZM113.6 85.2992C113.6 85.7992 113.7 86.2992 113.7 86.8992C113.7 87.4992 113.7 87.8992 113.6 88.4992H73.3004C73.3004 87.9992 73.2004 87.4992 73.2004 86.8992C73.2004 86.3992 73.2004 85.8992 73.3004 85.2992H113.6ZM70.1004 86.8992C70.1004 88.9992 70.4004 91.0992 71.1004 92.9992C66.5004 97.0992 60.7004 99.2992 54.6004 99.2992C40.9004 99.2992 29.7004 88.0992 29.7004 74.3992C29.7004 60.6992 40.9004 49.4992 54.6004 49.4992C66.5004 49.4992 76.8004 58.1992 79.0004 69.7992C73.5004 73.8992 70.1004 80.0992 70.1004 86.8992ZM31.2004 23.0992V21.4992H34.3004V18.3992H31.2004V16.7992C31.2004 15.8992 31.9004 15.1992 32.8004 15.1992H76.4004C77.3004 15.1992 78.0004 15.8992 78.0004 16.7992V18.3992H37.5004V21.4992H77.9004V23.0992C77.9004 23.9992 77.2004 24.6992 76.3004 24.6992H32.8004C31.9004 24.6992 31.2004 23.9992 31.2004 23.0992ZM71.7004 27.7992C71.9004 32.0992 72.7004 36.2992 74.2004 40.1992H34.9004C36.4004 36.1992 37.3004 31.9992 37.4004 27.7992H71.7004V27.7992ZM74.8004 105.599H34.3004C28.3004 105.599 23.4004 100.699 23.4004 94.6992V56.4992L24.1004 55.8992C28.1004 52.3992 31.3004 48.0992 33.5004 43.3992H75.5004C77.8004 48.0992 80.9004 52.3992 84.9004 55.8992L85.6004 56.4992V66.3992C84.2004 66.8992 82.9004 67.3992 81.7004 68.0992C78.8004 55.5992 67.5004 46.4992 54.5004 46.4992C39.1004 46.4992 26.5004 59.0992 26.5004 74.4992C26.5004 89.8992 39.1004 102.499 54.5004 102.499C61.0004 102.499 67.2004 100.199 72.3004 96.0992C74.0004 99.3992 76.5004 102.299 79.6004 104.399C78.1004 105.099 76.5004 105.599 74.8004 105.599ZM93.5004 105.599C84.1004 105.599 76.2004 99.5992 73.9004 91.5992H113C110.8 99.5992 102.9 105.599 93.5004 105.599Z" fill="black"/>
</svg>
