<svg width="120" height="120" viewBox="0 0 120 120" fill="none" xmlns="http://www.w3.org/2000/svg">
<path d="M60 120C93.1371 120 120 93.1371 120 60C120 26.8629 93.1371 0 60 0C26.8629 0 0 26.8629 0 60C0 93.1371 26.8629 120 60 120Z" fill="#377B87"/>
<path d="M13.2995 62.7992C18.9995 67.6992 25.3995 73.1992 37.8995 73.1992C50.3995 73.1992 56.7995 67.6992 62.4995 62.7992C67.8995 58.1992 72.4995 54.1992 82.1995 54.1992C91.8995 54.1992 96.4995 58.1992 101.899 62.7992C103.499 64.0992 105.799 63.9992 107.199 62.3992C108.499 60.7992 108.399 58.4992 106.799 57.0992C101.099 52.1992 94.6995 46.6992 82.1995 46.6992C69.6995 46.6992 63.2995 52.1992 57.5995 57.0992C52.1995 61.6992 47.5995 65.6992 37.8995 65.6992C28.1995 65.6992 23.5995 61.6992 18.1995 57.0992C16.5995 55.7992 14.2995 55.8992 12.8995 57.4992C11.5995 59.0992 11.6995 61.4992 13.2995 62.7992Z" fill="#F7F8F9"/>
<path d="M13.2995 42.2992C18.9995 47.1992 25.3995 52.6992 37.8995 52.6992C50.3995 52.6992 56.7995 47.1992 62.4995 42.2992C67.8995 37.6992 72.4995 33.6992 82.1995 33.6992C91.8995 33.6992 96.4995 37.6992 101.899 42.2992C103.499 43.5992 105.799 43.4992 107.199 41.8992C108.499 40.2992 108.399 37.9992 106.799 36.5992C101.099 31.6992 94.6995 26.1992 82.1995 26.1992C69.6995 26.1992 63.2995 31.6992 57.5995 36.5992C52.1995 41.1992 47.5995 45.1992 37.8995 45.1992C28.1995 45.1992 23.5995 41.1992 18.1995 36.5992C16.5995 35.2992 14.2995 35.3992 12.8995 36.9992C11.5995 38.5992 11.6995 40.9992 13.2995 42.2992Z" fill="#F7F8F9"/>
<path d="M106.7 77.7008C101 72.8008 94.5999 67.3008 82.0999 67.3008C69.5999 67.3008 63.1999 72.8008 57.4999 77.7008C52.0999 82.3008 47.4999 86.3008 37.7999 86.3008C28.0999 86.3008 23.4999 82.3008 18.0999 77.7008C16.4999 76.4008 14.1999 76.5008 12.7999 78.1008C11.4999 79.7008 11.5999 82.0008 13.1999 83.4008C18.8999 88.3008 25.2999 93.8008 37.7999 93.8008C50.2999 93.8008 56.6999 88.3008 62.3999 83.4008C67.7999 78.8008 72.3999 74.8008 82.0999 74.8008C91.7999 74.8008 96.3999 78.8008 101.8 83.4008C103.4 84.7008 105.7 84.6008 107.1 83.0008C108.4 81.4008 108.3 79.0008 106.7 77.7008Z" fill="#F7F8F9"/>
</svg>
