<svg width="120" height="120" viewBox="0 0 120 120" fill="none" xmlns="http://www.w3.org/2000/svg">
<path d="M60 120C93.1371 120 120 93.1371 120 60C120 26.8629 93.1371 0 60 0C26.8629 0 0 26.8629 0 60C0 93.1371 26.8629 120 60 120Z" fill="#377B87"/>
<path d="M63.0004 67.2017L64.5004 57.9017C64.7004 57.0017 64.4004 56.0017 63.9004 55.2017C62.1004 52.8017 58.3004 53.8017 57.8004 56.7017L56.2004 66.2017C55.6004 69.9017 51.2004 71.3017 48.6004 68.8017C43.2004 63.6017 40.9004 55.4017 42.7004 47.6017C43.5004 44.1017 43.5004 40.3017 42.6004 36.7017C39.5004 23.7017 54.0004 13.4017 64.0004 21.8017C65.6004 23.1017 67.8004 23.5017 69.7004 22.7017C82.0004 18.0017 92.5004 32.4017 85.3004 43.8017C83.3004 46.9017 82.1004 50.5017 81.7004 54.2017C80.9004 62.0017 76.3004 68.9017 69.9004 72.2017C66.4004 74.0017 62.3004 71.1017 63.0004 67.2017Z" fill="#EEEEEE"/>
<path d="M69.7996 22.7008C67.8996 23.5008 65.6996 23.1008 64.0996 21.8008C62.6996 20.6008 61.1996 19.8008 59.5996 19.3008V54.3008C62.0996 52.9008 64.9996 55.1008 64.5996 57.9008L62.9996 67.2008C62.3996 71.1008 66.3996 74.0008 69.8996 72.2008C76.2996 68.9008 80.8996 62.0008 81.6996 54.2008C82.0996 50.5008 83.3996 46.9008 85.2996 43.8008C92.4996 32.4008 81.9996 18.0008 69.7996 22.7008Z" fill="#DEDEDE"/>
<path d="M98.4998 101.302H21.1998C19.8998 101.302 18.7998 100.202 18.7998 98.9016C18.7998 89.0016 19.6998 60.5016 25.7998 52.1016C27.5998 49.6016 29.5998 49.1016 30.9998 49.1016C44.4998 49.1016 30.7998 87.0016 48.4998 87.0016C50.4998 87.0016 51.0998 85.0016 51.6998 82.9016C52.6998 79.3016 55.8998 76.8016 59.4998 76.5016C63.4998 76.2016 67.2998 78.7016 68.4998 83.0016C68.9998 84.8016 69.8998 87.0016 71.5998 87.0016C89.5998 87.0016 79.3998 53.9016 91.9998 53.9016C97.2998 53.9016 99.0998 61.1016 99.9998 66.3016C101.6 75.6016 101.5 90.2016 101 99.0016C100.9 100.202 99.7998 101.302 98.4998 101.302Z" fill="#E51B8A"/>
<path d="M95.9 55.7008C94.5 54.2008 92.9 53.8008 91.9 53.8008C79.3 53.8008 89.5 86.9008 71.5 86.9008C69.9 86.9008 68.9 84.7008 68.4 82.9008C67.2 78.6008 63.4 76.2008 59.5 76.4008V101.201H98.5C99.8 101.201 100.8 100.201 100.9 98.9008C101.4 89.9008 102.2 62.3008 95.9 55.7008Z" fill="#C80060"/>
</svg>
