<svg width="120" height="120" fill="none" xmlns="http://www.w3.org/2000/svg"><path d="M60 120c33.137 0 60-26.863 60-60S93.137 0 60 0 0 26.863 0 60s26.863 60 60 60z" fill="#377B87"/><path d="M43.5 94.6h-7.4c-6.7 0-12.1-5.4-12.1-12.1V40h31.6v42.5c0 6.7-5.4 12.1-12.1 12.1z" fill="#9B7E73"/><path d="M87.2 91.7c0-11.1-11.7-20.2-26.1-20.2-14.4 0-26.1 9-26.1 20.2v20.1c0 .8.8 1.5 1.9 1.5h64.4c1.2 0 2.2-.8 2.1-1.7-.7-7.1-6.1-13.2-13.7-16.6-1.6-.7-2.5-1.9-2.5-3.3z" fill="#E77587"/><path opacity=".1" d="M58 65.7c-6.6 0-12.5 2.8-16.7 7.2 4.9 2.8 10.6 4.4 16.7 4.4s11.8-1.6 16.7-4.4c-4.2-4.4-10.1-7.2-16.7-7.2z" fill="#000"/><path d="M24 45.898a6 6 0 100-12 6 6 0 000 12z" fill="#FFD4B8"/><path d="M22.6 49.898a4 4 0 100-8 4 4 0 000 8z" fill="#DF85C6"/><path d="M92 45.898a6 6 0 100-12 6 6 0 000 12z" fill="#FFD4B8"/><path d="M93.4 49.898a4 4 0 100-8 4 4 0 000 8z" fill="#DF85C6"/><path d="M58 73.898c18.778 0 34-15.222 34-34 0-18.777-15.222-34-34-34s-34 15.223-34 34c0 18.778 15.222 34 34 34z" fill="#FFD4B8"/><path d="M58 52.5c-1.8 0-3.5-.8-4.7-2.1-.6-.6-.6-1.6.1-2.2.6-.6 1.6-.6 2.2.1.6.7 1.5 1.1 2.5 1.1.9 0 1.8-.4 2.5-1.1.6-.6 1.6-.7 2.2-.1.6.6.7 1.6.1 2.2-1.4 1.4-3.1 2.1-4.9 2.1zm-14.2-9.402c-.9 0-1.6-.7-1.6-1.6 0-.8-.7-1.5-1.5-1.5s-1.5.7-1.5 1.5c0 .9-.7 1.6-1.6 1.6-.9 0-1.6-.7-1.6-1.6 0-2.6 2.1-4.6 4.6-4.6 2.6 0 4.6 2.1 4.6 4.6.2.9-.5 1.6-1.4 1.6zm34.5 0c-.9 0-1.6-.7-1.6-1.6 0-.8-.7-1.5-1.5-1.5s-1.5.7-1.5 1.5c0 .9-.7 1.6-1.6 1.6-.9 0-1.6-.7-1.6-1.6 0-2.6 2.1-4.6 4.6-4.6 2.6 0 4.6 2.1 4.6 4.6.2.9-.5 1.6-1.4 1.6z" fill="#4A5058"/><path opacity=".1" d="M63 69.6c-18.8 0-34-15.2-34-34 0-9.2 3.6-17.5 9.6-23.6C29.8 18.1 24 28.3 24 39.9c0 18.8 15.2 34 34 34 9.6 0 18.3-4 24.5-10.4-5.5 3.9-12.2 6.1-19.5 6.1z" fill="#513130"/><path d="M66 108.1c-6.3 0-11.5-1.6-15.4-4.9-4.9-4.1-7.6-10.7-7.4-18.2.1-2.3 2-4.1 4.3-4 2.3.1 4.1 2 4 4.3-.2 7 3 10.4 4.4 11.6 3.9 3.2 10.6 3.8 19.4 1.8 2.2-.5 4.4.9 4.9 3.1s-.9 4.4-3.1 4.9c-4.1 1-7.8 1.4-11.1 1.4z" fill="#FFD4B8"/><path d="M58 5.898c32.9 0 36.4 26.9 34 34-4.2-1.7-41.2-13.7-43.3-21.2-5.5 8.5-18.7 21.2-24.7 21.2-1.8-18.9 11.6-34 34-34z" fill="#9B7E73"/><path opacity=".1" d="M24 39.898c1.4 0 3.2-.7 5.1-1.8-1.3-14.2 6.2-26.3 19.5-31.2-16.7 3.5-26.2 16.9-24.6 33z" fill="#743631"/></svg>