<svg width="120" height="120" fill="none" xmlns="http://www.w3.org/2000/svg"><path d="M60 120c33.137 0 60-26.863 60-60S93.137 0 60 0 0 26.863 0 60s26.863 60 60 60z" fill="#377B87"/><path d="M63 67.202l1.5-9.3c.2-.9-.1-1.9-.6-2.7-1.8-2.4-5.6-1.4-6.1 1.5l-1.6 9.5c-.6 3.7-5 5.1-7.6 2.6-5.4-5.2-7.7-13.4-5.9-21.2.8-3.5.8-7.3-.1-10.9-3.1-13 11.4-23.3 21.4-14.9 1.6 1.3 3.8 1.7 5.7.9 12.3-4.7 22.8 9.7 15.6 21.1-2 3.1-3.2 6.7-3.6 10.4-.8 7.8-5.4 14.7-11.8 18-3.5 1.8-7.6-1.1-6.9-5z" fill="#EEE"/><path d="M69.8 22.7c-1.9.8-4.1.4-5.7-.9-1.4-1.2-2.9-2-4.5-2.5v35c2.5-1.4 5.4.8 5 3.6L63 67.2c-.6 3.9 3.4 6.8 6.9 5 6.4-3.3 11-10.2 11.8-18 .4-3.7 1.7-7.3 3.6-10.4C92.5 32.4 82 18 69.8 22.7z" fill="#DEDEDE"/><path d="M98.5 101.302H21.2c-1.3 0-2.4-1.1-2.4-2.4 0-9.9.9-38.4 7-46.8 1.8-2.5 3.8-3 5.2-3 13.5 0-.2 37.9 17.5 37.9 2 0 2.6-2 3.2-4.1 1-3.6 4.2-6.1 7.8-6.4 4-.3 7.8 2.2 9 6.5.5 1.8 1.4 4 3.1 4 18 0 7.8-33.1 20.4-33.1 5.3 0 7.1 7.2 8 12.4 1.6 9.3 1.5 23.9 1 32.7-.1 1.2-1.2 2.3-2.5 2.3z" fill="#E51B8A"/><path d="M95.9 55.7c-1.4-1.5-3-1.9-4-1.9-12.6 0-2.4 33.1-20.4 33.1-1.6 0-2.6-2.2-3.1-4-1.2-4.3-5-6.7-8.9-6.5v24.801h39c1.3 0 2.3-1 2.4-2.3.5-9 1.3-36.6-5-43.2z" fill="#C80060"/></svg>