<svg width="120" height="120" fill="none" xmlns="http://www.w3.org/2000/svg"><path d="M60 120c33.137 0 60-26.863 60-60S93.137 0 60 0 0 26.863 0 60s26.863 60 60 60z" fill="#377B87"/><path d="M92.2 17.102v6.8H80.3v-6.8H39.7v6.8H27.8v-6.8H14.2v18.7h91.6v-18.7H92.2z" fill="#FC3952"/><path d="M27.8 35.8H14.2v72.901h91.6v-72.9h-78z" fill="#EDEADA"/><path d="M77 47.602H27.8v49.3h64.5v-49.3H77zm-15.3 3.4h11.9v11.9H61.7v-11.9zm11.9 27.1H61.7v-11.8h11.9v11.8zm-27.2-11.8h11.9v11.9H46.4v-11.9zm0-15.3h11.9v11.9H46.4v-11.9zm-15.2 0H43v11.9H31.2v-11.9zm0 15.3H43v11.9H31.2v-11.9zm11.8 27.1H31.2v-11.9H43v11.9zm15.3 0H46.4v-11.9h11.9v11.9zm15.3 0H61.7v-11.9h11.9v11.9zm15.2 0H77v-11.9h11.9v11.9h-.1zm0-15.3H77v-11.8h11.9v11.8h-.1zM77 62.902v-11.9h11.9v11.9H77z" fill="#CEC9AE"/><path d="M39.7 10.3H27.8v13.6h11.9V10.3zm52.5 0H80.3v13.6h11.9V10.3z" fill="#28384C"/><path d="M73.6 66.3H61.7v11.9h11.9V66.3z" fill="#26B99A"/></svg>