<svg xmlns="http://www.w3.org/2000/svg" viewBox="0 0 120 120"><circle fill="#2D63BB" cx="60" cy="60" r="60"/><path fill="#EEE" d="M68.9 104.6c-1.8 0-3.2-1.4-3.2-3.2V81.7c0-3.6-2.8-6.7-6.1-6.6-3.2.1-5.9 2.9-5.9 6.4v19.8c0 1.8-1.4 3.2-3.2 3.2-4.6 0-5.1.1-6.1-.5-9.8-6.5-16.1-19.2-15.3-33.3.4-6-.7-12.4-3-18.3-8-19.9 11.7-39.6 28.9-29 3 1.8 6.7 1.8 9.7 0 17.3-10.7 37 9.3 28.8 29.2-2.5 5.8-3.5 12.2-3.2 18.5.7 13.2-5.1 26.1-14.7 32.9-1 .7-1.6.6-6.7.6z"/><path fill="#DEDEDE" d="M64.6 23.5c-1.5 1-3.3 1.4-5 1.4v50.3c3.4-.1 6.1 3 6.1 6.6v19.6c0 1.8 1.4 3.2 3.2 3.2 5.2 0 5.7.2 6.7-.6 9.6-6.7 15.4-19.6 14.7-32.9-.3-6.3.7-12.7 3.1-18.4 8.2-19.9-11.5-39.9-28.8-29.2z"/><path fill="#FECB74" d="M22.7 18.5l-4.2-5c-1.1-1.4-1-3.4.4-4.5s3.4-1 4.5.4l4.2 5c1.1 1.4 1 3.4-.4 4.5-1.3 1.2-3.3 1-4.5-.4zM12.1 33l-5.7-3.3c-1.5-.9-2.1-2.9-1.2-4.4.9-1.5 2.9-2.1 4.4-1.2l5.7 3.3c1.5.9 2.1 2.9 1.2 4.4-.9 1.5-2.9 2.1-4.4 1.2z"/><path d="M92.3 18.9c-1.4-1.1-1.5-3.2-.4-4.5l4.2-5c1.1-1.4 3.2-1.5 4.5-.4 1.4 1.1 1.5 3.2.4 4.5l-4.2 5c-1.1 1.4-3.1 1.6-4.5.4zm10.8 12.9c-.9-1.5-.4-3.5 1.2-4.4l5.7-3.3c1.5-.9 3.5-.4 4.4 1.2.9 1.5.4 3.5-1.2 4.4l-5.7 3.3c-1.6.9-3.5.3-4.4-1.2z" fill="#FFA039"/></svg>