<svg xmlns="http://www.w3.org/2000/svg" viewBox="0 0 120 120"><circle fill="#2D63BB" cx="60" cy="60" r="60"/><path fill="#48CFAD" d="M76.3 13.8H32.8c-1.7 0-3.1 1.4-3.1 3.1v6.2c0 1.7 1.4 3.1 3.1 3.1h43.6c1.7 0 3.1-1.4 3.1-3.1v-6.2c0-1.7-1.4-3.1-3.2-3.1z"/><path fill="#CCD1D9" d="M76.6 41.8h-44c2.2-4.8 3.3-10.1 3.3-15.6h37.3c0 5.4 1.2 10.7 3.4 15.6z"/><path fill="#E6E9ED" d="M87.2 67.5c-2.4.7-4.6 1.7-6.5 3C78.8 57.8 67.8 48 54.6 48 40 48 28.1 59.8 28.1 74.4s11.8 26.4 26.4 26.4c7.1 0 13.5-2.8 18.3-7.4 1.7 4.6 5.2 8.5 9.7 10.9-2.1 1.7-4.8 2.7-7.8 2.7H34.3c-6.9 0-12.4-5.6-12.4-12.4V55.8l1.2-1.1c4.1-3.6 7.3-8.1 9.5-12.9h44c2.2 4.9 5.4 9.3 9.5 12.9l1.2 1.1v11.7z"/><path fill="#48CFAD" d="M80.7 70.5c-4.6 3.1-7.8 7.8-8.7 13.2-.2 1-.3 2.1-.3 3.1s.1 2.1.3 3.1c.2 1.2.5 2.4.9 3.5-4.8 4.6-11.2 7.4-18.3 7.4-14.6.1-26.5-11.8-26.5-26.4S40 48 54.6 48c13.2 0 24.2 9.8 26.1 22.5z"/><path fill="#E6E9ED" d="M71.7 65.5v.7c0 1.3-.4 2.6-1.1 3.7-3.3 5-5.1 10.9-5.1 16.9v3c0 .9-.4 1.7-1 2.3-.6.6-1.4 1-2.3 1-1.7 0-3.1-1.3-3.3-2.9l-.9-8c-.1-.9-.5-1.6-1.1-2.2-.6-.5-1.4-.9-2.3-.9-1.8 0-3.3 1.3-3.5 3.1l-.9 8c-.2 1.7-1.6 2.9-3.3 2.9-1.8 0-3.3-1.5-3.3-3.3v-3c0-3-.4-6-1.3-8.8-.9-2.8-2.1-5.6-3.8-8.1-.7-1.1-1.1-2.4-1.1-3.7v-.7c0-1.8.7-3.5 1.9-4.7 1.2-1.2 2.8-1.9 4.7-1.9 1.8 0 3.4.7 4.7 1.9l.5.5c1.4 1.4 3.3 2.2 5.3 2.2s3.9-.8 5.3-2.2l.5-.5c1.2-1.2 2.9-1.9 4.7-1.9 3.7 0 6.7 2.9 6.7 6.6z"/><path fill="#FCD770" d="M72 90h43c-1.6 9.7-10.6 17.1-21.5 17.1-4 0-7.7-1-10.9-2.7-4.5-2.4-8-6.3-9.7-10.9-.4-1.1-.8-2.3-.9-3.5zm43-6.2H71.9c.9-5.4 4.1-10.2 8.7-13.2 2-1.3 4.2-2.3 6.5-3 2-.6 4.1-.9 6.2-.9 11 0 20.1 7.4 21.7 17.1z"/><path fill="#E6E9ED" d="M115 83.8c.2 1 .3 2.1.3 3.1s-.2 2.1-.3 3.1H71.9c-.2-1-.3-2.1-.3-3.1s.1-2.1.3-3.1H115z"/><path d="M65.1 57.3c-2.2 0-4.2.8-5.8 2.4l-.5.5c-1.1 1.1-2.6 1.7-4.2 1.7s-3.1-.6-4.2-1.7l-.5-.5c-1.5-1.5-3.6-2.4-5.8-2.4-4.5 0-8.2 3.7-8.2 8.2v.7c0 1.6.5 3.2 1.4 4.5 3.2 4.8 4.9 10.3 4.9 16v3.1c0 2.7 2.2 4.8 4.8 4.8 2.5 0 4.5-1.8 4.8-4.3l.9-8c.1-1 .9-1.7 1.9-1.7s1.8.7 1.9 1.7l.9 8c.3 2.5 2.3 4.3 4.8 4.3 2.7 0 4.8-2.2 4.8-4.8v-3.1c0-5.7 1.7-11.3 4.9-16 .9-1.3 1.4-2.9 1.4-4.5v-.7c-.1-4.5-3.7-8.2-8.2-8.2zm5 8.9c0 1-.3 2-.8 2.8-3.5 5.3-5.4 11.4-5.4 17.8v3.1c0 1-.8 1.7-1.7 1.7-.9 0-1.6-.7-1.7-1.5l-.9-8c-.3-2.6-2.4-4.5-5-4.5s-4.7 1.9-5 4.5l-.9 8c-.1.9-.8 1.5-1.7 1.5-1 0-1.7-.8-1.7-1.7v-3.1c0-6.3-1.9-12.5-5.4-17.8-.6-.8-.8-1.8-.8-2.8v-.7c0-2.8 2.3-5 5-5 1.3 0 2.6.5 3.6 1.5l.5.5c1.7 1.7 4 2.7 6.4 2.7s4.7-1 6.4-2.7l.5-.5c1-1 2.2-1.5 3.6-1.5 2.8 0 5 2.3 5 5v.7z"/><path d="M93.5 65.1c-.6 0-1.1 0-1.7.1l.2 3.1h1.5c9.4 0 17.3 6 19.6 14H73.9C75.7 76 80.8 70.9 87.7 69l1.1-.3V55.1l-1.7-1.5C79.7 47 75.3 37.7 74.9 27.8h1.5c2.6 0 4.7-2.1 4.7-4.7v-6.2c0-2.6-2.1-4.7-4.7-4.7H32.8c-2.6 0-4.7 2.1-4.7 4.7v6.2c0 2.6 2.1 4.7 4.7 4.7h1.5c-.4 9.9-4.8 19.2-12.2 25.8l-1.7 1.5v39.6c0 7.7 6.3 14 14 14h40.4c2.9 0 5.6-.9 7.9-2.5 3.2 1.6 6.9 2.5 10.7 2.5 12.9 0 23.3-9.8 23.3-21.8s-10.4-21.8-23.2-21.8zm20.1 20.2c0 .5.1 1 .1 1.6s0 1-.1 1.6H73.3c0-.5-.1-1-.1-1.6 0-.5 0-1 .1-1.6h40.3zm-43.5 1.6c0 2.1.3 4.2 1 6.1-4.6 4.1-10.4 6.3-16.5 6.3-13.7 0-24.9-11.2-24.9-24.9s11.2-24.9 24.9-24.9c11.9 0 22.2 8.7 24.4 20.3-5.5 4.1-8.9 10.3-8.9 17.1zM31.2 23.1v-1.6h3.1v-3.1h-3.1v-1.6c0-.9.7-1.6 1.6-1.6h43.6c.9 0 1.6.7 1.6 1.6v1.6H37.5v3.1h40.4v1.6c0 .9-.7 1.6-1.6 1.6H32.8c-.9 0-1.6-.7-1.6-1.6zm40.5 4.7c.2 4.3 1 8.5 2.5 12.4H34.9c1.5-4 2.4-8.2 2.5-12.4h34.3zm3.1 77.8H34.3c-6 0-10.9-4.9-10.9-10.9V56.5l.7-.6c4-3.5 7.2-7.8 9.4-12.5h42c2.3 4.7 5.4 9 9.4 12.5l.7.6v9.9c-1.4.5-2.7 1-3.9 1.7-2.9-12.5-14.2-21.6-27.2-21.6-15.4 0-28 12.6-28 28s12.6 28 28 28c6.5 0 12.7-2.3 17.8-6.4 1.7 3.3 4.2 6.2 7.3 8.3-1.5.7-3.1 1.2-4.8 1.2zm18.7 0c-9.4 0-17.3-6-19.6-14H113c-2.2 8-10.1 14-19.5 14z"/></svg>