<svg xmlns="http://www.w3.org/2000/svg" viewBox="0 0 120 120"><circle fill="#2D63BB" cx="60" cy="60" r="60"/><path fill="#EEE" d="M63 67.2l1.5-9.3c.2-.9-.1-1.9-.6-2.7-1.8-2.4-5.6-1.4-6.1 1.5l-1.6 9.5c-.6 3.7-5 5.1-7.6 2.6-5.4-5.2-7.7-13.4-5.9-21.2.8-3.5.8-7.3-.1-10.9C39.5 23.7 54 13.4 64 21.8c1.6 1.3 3.8 1.7 5.7.9C82 18 92.5 32.4 85.3 43.8c-2 3.1-3.2 6.7-3.6 10.4-.8 7.8-5.4 14.7-11.8 18-3.5 1.8-7.6-1.1-6.9-5z"/><path fill="#DEDEDE" d="M69.8 22.7c-1.9.8-4.1.4-5.7-.9-1.4-1.2-2.9-2-4.5-2.5v35c2.5-1.4 5.4.8 5 3.6L63 67.2c-.6 3.9 3.4 6.8 6.9 5 6.4-3.3 11-10.2 11.8-18 .4-3.7 1.7-7.3 3.6-10.4C92.5 32.4 82 18 69.8 22.7z"/><path fill="#E51B8A" d="M98.5 101.3H21.2c-1.3 0-2.4-1.1-2.4-2.4 0-9.9.9-38.4 7-46.8 1.8-2.5 3.8-3 5.2-3 13.5 0-.2 37.9 17.5 37.9 2 0 2.6-2 3.2-4.1 1-3.6 4.2-6.1 7.8-6.4 4-.3 7.8 2.2 9 6.5.5 1.8 1.4 4 3.1 4 18 0 7.8-33.1 20.4-33.1 5.3 0 7.1 7.2 8 12.4 1.6 9.3 1.5 23.9 1 32.7-.1 1.2-1.2 2.3-2.5 2.3z"/><path fill="#C80060" d="M95.9 55.7c-1.4-1.5-3-1.9-4-1.9-12.6 0-2.4 33.1-20.4 33.1-1.6 0-2.6-2.2-3.1-4-1.2-4.3-5-6.7-8.9-6.5v24.8h39c1.3 0 2.3-1 2.4-2.3.5-9 1.3-36.6-5-43.2z"/></svg>