<svg xmlns="http://www.w3.org/2000/svg" viewBox="0 0 120 120"><circle fill="#2D63BB" cx="60" cy="60" r="60"/><path fill="#9B7E73" d="M43.5 94.6h-7.4c-6.7 0-12.1-5.4-12.1-12.1V40h31.6v42.5c0 6.7-5.4 12.1-12.1 12.1z"/><path fill="#E77587" d="M87.2 91.7c0-11.1-11.7-20.2-26.1-20.2-14.4 0-26.1 9-26.1 20.2v20.1c0 .8.8 1.5 1.9 1.5h64.4c1.2 0 2.2-.8 2.1-1.7-.7-7.1-6.1-13.2-13.7-16.6-1.6-.7-2.5-1.9-2.5-3.3z"/><path opacity=".1" d="M58 65.7c-6.6 0-12.5 2.8-16.7 7.2 4.9 2.8 10.6 4.4 16.7 4.4s11.8-1.6 16.7-4.4c-4.2-4.4-10.1-7.2-16.7-7.2z"/><circle fill="#FFD4B8" cx="24" cy="39.9" r="6"/><circle fill="#DF85C6" cx="22.6" cy="45.9" r="4"/><circle fill="#FFD4B8" cx="92" cy="39.9" r="6"/><circle fill="#DF85C6" cx="93.4" cy="45.9" r="4"/><circle fill="#FFD4B8" cx="58" cy="39.9" r="34"/><path d="M58 52.5c-1.8 0-3.5-.8-4.7-2.1-.6-.6-.6-1.6.1-2.2.6-.6 1.6-.6 2.2.1.6.7 1.5 1.1 2.5 1.1.9 0 1.8-.4 2.5-1.1.6-.6 1.6-.7 2.2-.1.6.6.7 1.6.1 2.2-1.4 1.4-3.1 2.1-4.9 2.1zm-14.2-9.4c-.9 0-1.6-.7-1.6-1.6 0-.8-.7-1.5-1.5-1.5s-1.5.7-1.5 1.5c0 .9-.7 1.6-1.6 1.6s-1.6-.7-1.6-1.6c0-2.6 2.1-4.6 4.6-4.6 2.6 0 4.6 2.1 4.6 4.6.2.9-.5 1.6-1.4 1.6zm34.5 0c-.9 0-1.6-.7-1.6-1.6 0-.8-.7-1.5-1.5-1.5s-1.5.7-1.5 1.5c0 .9-.7 1.6-1.6 1.6-.9 0-1.6-.7-1.6-1.6 0-2.6 2.1-4.6 4.6-4.6 2.6 0 4.6 2.1 4.6 4.6.2.9-.5 1.6-1.4 1.6z" fill="#4A5058"/><path opacity=".1" fill="#513130" d="M63 69.6c-18.8 0-34-15.2-34-34 0-9.2 3.6-17.5 9.6-23.6C29.8 18.1 24 28.3 24 39.9c0 18.8 15.2 34 34 34 9.6 0 18.3-4 24.5-10.4-5.5 3.9-12.2 6.1-19.5 6.1z"/><path fill="#FFD4B8" d="M66 108.1c-6.3 0-11.5-1.6-15.4-4.9-4.9-4.1-7.6-10.7-7.4-18.2.1-2.3 2-4.1 4.3-4 2.3.1 4.1 2 4 4.3-.2 7 3 10.4 4.4 11.6 3.9 3.2 10.6 3.8 19.4 1.8 2.2-.5 4.4.9 4.9 3.1s-.9 4.4-3.1 4.9c-4.1 1-7.8 1.4-11.1 1.4z"/><path fill="#9B7E73" d="M58 5.9c32.9 0 36.4 26.9 34 34-4.2-1.7-41.2-13.7-43.3-21.2C43.2 27.2 30 39.9 24 39.9c-1.8-18.9 11.6-34 34-34z"/><path opacity=".1" fill="#743631" d="M24 39.9c1.4 0 3.2-.7 5.1-1.8-1.3-14.2 6.2-26.3 19.5-31.2-16.7 3.5-26.2 16.9-24.6 33z"/></svg>