<svg xmlns="http://www.w3.org/2000/svg" viewBox="0 0 120 120"><circle fill="#2D63BB" cx="60" cy="60" r="60"/><path fill="#FC3952" d="M92.2 17.1v6.8H80.3v-6.8H39.7v6.8H27.8v-6.8H14.2v18.7h91.6V17.1z"/><path fill="#EDEADA" d="M27.8 35.8H14.2v72.9h91.6V35.8H39.7z"/><path fill="#CEC9AE" d="M77 47.6H27.8v49.3h64.5V47.6H77zM61.7 51h11.9v11.9H61.7V51zm11.9 27.1H61.7V66.3h11.9v11.8zM46.4 66.3h11.9v11.9H46.4V66.3zm0-15.3h11.9v11.9H46.4V51zm-15.2 0H43v11.9H31.2V51zm0 15.3H43v11.9H31.2V66.3zM43 93.4H31.2V81.5H43v11.9zm15.3 0H46.4V81.5h11.9v11.9zm15.3 0H61.7V81.5h11.9v11.9zm15.2 0H77V81.5h11.9v11.9zm0-15.3H77V66.3h11.9v11.8zM77 62.9V51h11.9v11.9H77z"/><path fill="#28384C" d="M27.8 10.3h11.9v13.6H27.8zm52.5 0h11.9v13.6H80.3z"/><path fill="#26B99A" d="M61.7 66.3h11.9v11.9H61.7z"/></svg>