<svg xmlns="http://www.w3.org/2000/svg" viewBox="0 0 120 120"><circle fill="#2D63BB" cx="60" cy="60" r="60"/><path fill="#FFF" d="M92.5 25.3c-8.9-8.4-24.8-4.1-30.2-2.4-1.2.4-2.4.4-3.6 0-5.3-1.8-21.3-6.1-30.2 2.4-14.6 12.8-4.3 32.2 1.1 40.2 1.7 2.6 2.6 5.5 2.7 8.6.6 17.7 4.1 34.7 9.6 34.7 6 0 6.6-6.8 6.6-22.1 0-7.3 2.7-11.6 5.6-14.1 3.7-3.2 9.3-3.2 12.9 0 2.9 2.5 5.6 6.8 5.6 14.1 0 15.3.6 22.1 6.6 22.1 5.5 0 9-16.9 9.6-34.7.1-3.1 1-6.1 2.7-8.6 5.2-8 15.6-27.3 1-40.2z"/><path fill="#D5E6F7" d="M92.5 25.3c-4.9-4.7-12-5.4-18.2-4.9 4.3.4 8.5 1.8 11.8 4.9 14.6 12.8 4.3 32.2-1.1 40.2-1.7 2.6-2.6 5.5-2.7 8.6-.5 14.6-3 28.6-6.9 33.2.9 1 2.1 1.5 3.7 1.5 5.5 0 9-16.9 9.6-34.7.1-3.1 1-6.1 2.7-8.6 5.3-8 15.7-27.3 1.1-40.2z"/><path fill="#504774" d="M79.1 110.6c-8.4 0-8.4-10-8.4-23.9 0-5.5-1.7-9.8-5-12.7-1.4-1.3-3.3-2-5.3-2s-3.8.7-5.3 2c-3.3 2.9-5 7.2-5 12.7 0 13.9 0 23.9-8.4 23.9-10 0-11.3-32.7-11.4-36.4-.1-2.8-.9-5.4-2.4-7.7-5.5-8.2-16.5-28.8-.8-42.6 3.9-3.7 9.3-5.5 16.1-5.5 6.6 0 12.8 1.7 15.9 2.8.8.3 1.7.3 2.5 0 3.1-1 9.3-2.8 15.9-2.8 6.8 0 12.2 1.9 16.1 5.5 15.7 13.8 4.7 34.4-.8 42.6-1.5 2.3-2.3 4.9-2.4 7.7 0 3.7-1.4 36.4-11.3 36.4zM60.5 68.4c2.8 0 5.6 1 7.7 2.9 2.8 2.5 6.2 7.2 6.2 15.5 0 7.8.2 13 1 16.3.9 3.6 2.4 4 3.8 4 2.8 0 7.1-11.7 7.8-32.9.1-3.4 1.2-6.7 3-9.6 4.9-7.4 15-25.9 1.4-37.9h-.1c-3.2-3-7.8-4.6-13.6-4.6-6 0-11.8 1.6-14.7 2.6-1.5.5-3.2.5-4.8 0-2.9-1-8.7-2.6-14.7-2.6-5.9 0-10.4 1.5-13.6 4.6h-.1C16.1 38.6 26.1 57.1 31 64.5c1.9 2.8 2.9 6.1 3 9.6.7 21.2 5 32.9 7.8 32.9 1.4 0 2.9-.3 3.8-3.9.8-3.3 1-8.5 1-16.3 0-8.2 3.4-13 6.2-15.5 2.1-1.9 4.8-2.9 7.7-2.9z"/><path fill="#FD919F" d="M49.7 39.5l-9.3 9.3L12 20.5l9.3-9.3 28.4 28.3z"/><path fill="#E0667D" d="M49.7 39.5l-9.3 9.3-9.4-9.4 9.3-9.3 9.4 9.4z"/><path fill="#504774" d="M40.3 50.6c-.5 0-.9-.2-1.3-.5L10.8 21.8c-.3-.3-.5-.8-.5-1.3s.2-.9.5-1.3l9.3-9.3c.7-.7 1.9-.7 2.6 0L51 38.2c.3.3.5.8.5 1.3s-.2.9-.5 1.3l-9.3 9.3c-.4.3-.9.5-1.4.5zM14.6 20.5l25.7 25.7 6.8-6.8-25.7-25.7-6.8 6.8z"/><path fill="#FD919F" d="M40.3 11.2l9.3 9.3-28.2 28.3-9.4-9.3 28.3-28.3z"/><path fill="#E0667D" d="M46.7 17.5l3 3-28.3 28.3-3-3 28.3-28.3z"/><path fill="#504774" d="M21.4 50.6c-.5 0-.9-.2-1.3-.5l-9.3-9.3c-.7-.7-.7-1.9 0-2.6L39.1 9.9c.7-.7 1.9-.7 2.6 0l9.3 9.3c.3.3.5.8.5 1.3s-.2.9-.5 1.3L22.6 50.1c-.3.3-.8.5-1.2.5zm-6.8-11.1l6.8 6.8 25.7-25.7-6.8-6.8-25.7 25.7z"/></svg>