<svg xmlns="http://www.w3.org/2000/svg" viewBox="0 0 120 120"><circle fill="#2D63BB" cx="60" cy="60" r="60"/><g fill="#F7F8F9"><path d="M13.3 62.8c5.7 4.9 12.1 10.4 24.6 10.4 12.5 0 18.9-5.5 24.6-10.4 5.4-4.6 10-8.6 19.7-8.6s14.3 4 19.7 8.6c1.6 1.3 3.9 1.2 5.3-.4 1.3-1.6 1.2-3.9-.4-5.3-5.7-4.9-12.1-10.4-24.6-10.4s-18.9 5.5-24.6 10.4c-5.4 4.6-10 8.6-19.7 8.6s-14.3-4-19.7-8.6c-1.6-1.3-3.9-1.2-5.3.4-1.3 1.6-1.2 4 .4 5.3z"/><path d="M13.3 42.3c5.7 4.9 12.1 10.4 24.6 10.4 12.5 0 18.9-5.5 24.6-10.4 5.4-4.6 10-8.6 19.7-8.6s14.3 4 19.7 8.6c1.6 1.3 3.9 1.2 5.3-.4 1.3-1.6 1.2-3.9-.4-5.3-5.7-4.9-12.1-10.4-24.6-10.4-12.5 0-18.9 5.5-24.6 10.4-5.4 4.6-10 8.6-19.7 8.6s-14.3-4-19.7-8.6c-1.6-1.3-3.9-1.2-5.3.4-1.3 1.6-1.2 4 .4 5.3zm93.4 35.4c-5.7-4.9-12.1-10.4-24.6-10.4s-18.9 5.5-24.6 10.4c-5.4 4.6-10 8.6-19.7 8.6s-14.3-4-19.7-8.6c-1.6-1.3-3.9-1.2-5.3.4-1.3 1.6-1.2 3.9.4 5.3 5.7 4.9 12.1 10.4 24.6 10.4 12.5 0 18.9-5.5 24.6-10.4 5.4-4.6 10-8.6 19.7-8.6s14.3 4 19.7 8.6c1.6 1.3 3.9 1.2 5.3-.4 1.3-1.6 1.2-4-.4-5.3z"/></g></svg>