<svg width="18" height="22" viewBox="0 0 18 22" fill="none" xmlns="http://www.w3.org/2000/svg">
<path d="M8.99998 22C7.37605 20.6835 5.87081 19.2402 4.49999 17.6852C2.44285 15.35 1.13e-06 11.8722 1.13e-06 8.55818C-0.000891023 6.86568 0.52651 5.21097 1.51546 3.80347C2.50441 2.39596 3.91045 1.29893 5.55565 0.651204C7.20084 0.00347864 9.01123 -0.165823 10.7577 0.164725C12.5042 0.495274 14.1082 1.31081 15.3668 2.50813C16.2048 3.30103 16.869 4.24401 17.321 5.28249C17.7729 6.32098 18.0037 7.43435 18 8.55818C18 11.8722 15.5571 15.35 13.5 17.6852C12.1291 19.2402 10.6239 20.6835 8.99998 22ZM8.99998 4.89222C7.977 4.89222 6.99593 5.27846 6.27257 5.96596C5.54922 6.65346 5.14284 7.58591 5.14284 8.55818C5.14284 9.53045 5.54922 10.4629 6.27257 11.1504C6.99593 11.8379 7.977 12.2241 8.99998 12.2241C10.023 12.2241 11.004 11.8379 11.7274 11.1504C12.4507 10.4629 12.8571 9.53045 12.8571 8.55818C12.8571 7.58591 12.4507 6.65346 11.7274 5.96596C11.004 5.27846 10.023 4.89222 8.99998 4.89222Z" fill="#002C40"/>
</svg>
