<svg width="23" height="20" viewBox="0 0 23 20" fill="none" xmlns="http://www.w3.org/2000/svg">
<g clip-path="url(#clip0_106:25)">
<path d="M21.4569 3.94937C21.608 3.4025 21.4569 3 20.7299 3H18.3244C17.7118 3 17.43 3.34562 17.2788 3.73062C17.2788 3.73062 16.0536 6.92875 14.322 9.0025C13.7624 9.60187 13.5052 9.79438 13.1988 9.79438C13.0477 9.79438 12.8149 9.60187 12.8149 9.055V3.94937C12.8149 3.29312 12.6434 3 12.137 3H8.35512C7.97122 3 7.74251 3.30625 7.74251 3.59062C7.74251 4.21187 8.60834 4.35625 8.69819 6.10625V9.90375C8.69819 10.735 8.55933 10.8881 8.25302 10.8881C7.43621 10.8881 5.45134 7.67687 4.27513 4.00188C4.03825 3.28875 3.80546 3 3.18876 3H0.783236C0.0971107 3 -0.041748 3.34562 -0.041748 3.73062C-0.041748 4.41312 0.775068 7.80375 3.76053 12.2838C5.74948 15.3419 8.55116 17 11.0996 17C12.6312 17 12.819 16.6325 12.819 15.9981C12.819 13.0756 12.6802 12.8 13.448 12.8C13.8033 12.8 14.4159 12.9925 15.8453 14.4669C17.479 16.2169 17.7485 17 18.6633 17H21.0689C21.755 17 22.1021 16.6325 21.902 15.9062C21.4446 14.3794 18.353 11.2381 18.2141 11.0281C17.8588 10.5381 17.9609 10.3194 18.2141 9.88188C18.2182 9.8775 21.1546 5.45 21.4569 3.94937V3.94937Z" fill="#002C40"/>
</g>
<defs>
<clipPath id="clip0_106:25">
<rect width="22.5" height="20" fill="white"/>
</clipPath>
</defs>
</svg>
