<svg width="200" height="230" viewBox="0 0 200 230" fill="none" xmlns="http://www.w3.org/2000/svg">
<g opacity="0.3">
<path d="M99.9991 91.5391C112.788 91.5391 122.221 81.7871 122.221 68.5391C122.221 55.2911 112.788 45.5391 99.9991 45.5391C87.2214 45.5391 77.7769 55.2911 77.7769 68.5391C77.7769 81.7871 87.2214 91.5391 99.9991 91.5391ZM99.9991 103.039C75.4547 103.039 55.5547 121.577 55.5547 144.439V148.878H144.444V144.439C144.444 121.577 124.544 103.039 99.9991 103.039Z" fill="#CCCCCC"/>
<path d="M177.778 0H22.2222C9.96667 0 0 10.3155 0 23V172.5C0 185.185 9.96667 195.5 22.2222 195.5H66.6667L100 230L133.333 195.5H177.778C190.033 195.5 200 185.185 200 172.5V23C200 10.3155 190.033 0 177.778 0ZM122.222 172.5L100 195.5L77.7778 172.5H22.2222V23H177.778L177.8 172.5H122.222Z" fill="#CCCCCC"/>
</g>
</svg>
