<svg width="23" height="20" fill="none" xmlns="http://www.w3.org/2000/svg"><g clip-path="url(#clip0_106:25)"><path d="M21.457 3.95c.151-.548 0-.95-.727-.95h-2.406c-.612 0-.894.346-1.045.73 0 0-1.225 3.199-2.957 5.272-.56.6-.817.792-1.123.792-.151 0-.384-.192-.384-.739V3.949c0-.656-.172-.949-.678-.949H8.355a.599.599 0 00-.612.59c0 .622.865.766.955 2.516v3.798c0 .831-.139.984-.445.984-.817 0-2.802-3.211-3.978-6.886C4.038 3.289 3.805 3 3.19 3H.783c-.686 0-.825.346-.825.73 0 .683.817 4.074 3.803 8.554C5.749 15.342 8.55 17 11.1 17c1.531 0 1.719-.367 1.719-1.002 0-2.922-.139-3.198.629-3.198.355 0 .968.192 2.397 1.667C17.48 16.217 17.748 17 18.663 17h2.406c.686 0 1.033-.367.833-1.094-.457-1.527-3.549-4.668-3.688-4.878-.355-.49-.253-.709 0-1.146.004-.005 2.94-4.432 3.243-5.933z" fill="#002C40"/></g><defs><clipPath id="clip0_106:25"><path fill="#fff" d="M0 0h22.5v20H0z"/></clipPath></defs></svg>