<svg width="200" height="230" fill="none" xmlns="http://www.w3.org/2000/svg"><g opacity=".3" fill="#CCC"><path d="M100 91.54c12.788 0 22.221-9.753 22.221-23 0-13.249-9.433-23-22.222-23-12.778 0-22.222 9.751-22.222 23 0 13.247 9.444 23 22.222 23zm0 11.499c-24.545 0-44.445 18.538-44.445 41.4v4.439h88.889v-4.439c0-22.862-19.9-41.4-44.445-41.4z"/><path d="M177.778 0H22.222C9.967 0 0 10.316 0 23v149.5c0 12.685 9.967 23 22.222 23h44.445L100 230l33.333-34.5h44.445c12.255 0 22.222-10.315 22.222-23V23c0-12.684-9.967-23-22.222-23zm-55.556 172.5L100 195.5l-22.222-23H22.222V23h155.556l.022 149.5h-55.578z"/></g></svg>